<svg width="80" height="80" viewBox="0 0 80 80" fill="none" xmlns="http://www.w3.org/2000/svg">
<circle cx="40" cy="40" r="39" stroke="black" stroke-width="2"/>
<path d="M41 14.6667C41 14.1144 40.5523 13.6667 40 13.6667C39.4477 13.6667 39 14.1144 39 14.6667H41ZM40 64.6667L39.3774 65.4492H40.6226L40 64.6667ZM19.9559 47.4412C19.5238 47.0973 18.8947 47.1689 18.5508 47.6011C18.207 48.0333 18.2786 48.6624 18.7107 49.0062L19.9559 47.4412ZM61.2893 49.0062C61.7215 48.6624 61.7931 48.0333 61.4492 47.6011C61.1054 47.1689 60.4762 47.0973 60.0441 47.4412L61.2893 49.0062ZM39 14.6667C39 14.7048 39 14.7429 39 14.781C39 14.819 39 14.8571 39 14.8951C39 14.9331 39 14.9711 39 15.009C39 15.047 39 15.0849 39 15.1227C39 15.1606 39 15.1985 39 15.2363C39 15.2741 39 15.3119 39 15.3496C39 15.3874 39 15.4251 39 15.4628C39 15.5005 39 15.5381 39 15.5757C39 15.6134 39 15.6509 39 15.6885C39 15.7261 39 15.7636 39 15.8011C39 15.8386 39 15.876 39 15.9135C39 15.9509 39 15.9883 39 16.0257C39 16.0631 39 16.1004 39 16.1377C39 16.175 39 16.2123 39 16.2495C39 16.2868 39 16.324 39 16.3612C39 16.3984 39 16.4355 39 16.4726C39 16.5098 39 16.5469 39 16.5839C39 16.621 39 16.658 39 16.695C39 16.732 39 16.769 39 16.8059C39 16.8429 39 16.8798 39 16.9166C39 16.9535 39 16.9904 39 17.0272C39 17.064 39 17.1008 39 17.1376C39 17.1743 39 17.211 39 17.2477C39 17.2844 39 17.3211 39 17.3578C39 17.3944 39 17.431 39 17.4676C39 17.5042 39 17.5407 39 17.5772C39 17.6138 39 17.6503 39 17.6867C39 17.7232 39 17.7596 39 17.796C39 17.8324 39 17.8688 39 17.9051C39 17.9415 39 17.9778 39 18.0141C39 18.0504 39 18.0866 39 18.1229C39 18.1591 39 18.1953 39 18.2315C39 18.2677 39 18.3038 39 18.3399C39 18.376 39 18.4121 39 18.4482C39 18.4842 39 18.5203 39 18.5563C39 18.5923 39 18.6283 39 18.6642C39 18.7002 39 18.7361 39 18.772C39 18.8079 39 18.8437 39 18.8795C39 18.9154 39 18.9512 39 18.987C39 19.0227 39 19.0585 39 19.0942C39 19.1299 39 19.1656 39 19.2013C39 19.237 39 19.2726 39 19.3082C39 19.3438 39 19.3794 39 19.415C39 19.4506 39 19.4861 39 19.5216C39 19.5571 39 19.5926 39 19.628C39 19.6635 39 19.6989 39 19.7343C39 19.7697 39 19.8051 39 19.8404C39 19.8757 39 19.9111 39 19.9464C39 19.9816 39 20.0169 39 20.0521C39 20.0874 39 20.1226 39 20.1578C39 20.193 39 20.2281 39 20.2633C39 20.2984 39 20.3335 39 20.3686C39 20.4036 39 20.4387 39 20.4737C39 20.5088 39 20.5438 39 20.5787C39 20.6137 39 20.6487 39 20.6836C39 20.7185 39 20.7534 39 20.7883C39 20.8231 39 20.858 39 20.8928C39 20.9276 39 20.9624 39 20.9972C39 21.032 39 21.0667 39 21.1014C39 21.1362 39 21.1709 39 21.2055C39 21.2402 39 21.2748 39 21.3095C39 21.3441 39 21.3787 39 21.4133C39 21.4478 39 21.4824 39 21.5169C39 21.5514 39 21.5859 39 21.6204C39 21.6549 39 21.6893 39 21.7237C39 21.7581 39 21.7925 39 21.8269C39 21.8613 39 21.8956 39 21.93C39 21.9643 39 21.9986 39 22.0329C39 22.0672 39 22.1014 39 22.1356C39 22.1699 39 22.2041 39 22.2383C39 22.2724 39 22.3066 39 22.3407C39 22.3749 39 22.409 39 22.4431C39 22.4771 39 22.5112 39 22.5453C39 22.5793 39 22.6133 39 22.6473C39 22.6813 39 22.7153 39 22.7492C39 22.7832 39 22.8171 39 22.851C39 22.8849 39 22.9188 39 22.9526C39 22.9865 39 23.0203 39 23.0541C39 23.0879 39 23.1217 39 23.1555C39 23.1892 39 23.223 39 23.2567C39 23.2904 39 23.3241 39 23.3578C39 23.3915 39 23.4251 39 23.4588C39 23.4924 39 23.526 39 23.5596C39 23.5932 39 23.6267 39 23.6603C39 23.6938 39 23.7273 39 23.7608C39 23.7943 39 23.8278 39 23.8613C39 23.8947 39 23.9281 39 23.9616C39 23.995 39 24.0283 39 24.0617C39 24.0951 39 24.1284 39 24.1618C39 24.1951 39 24.2284 39 24.2617C39 24.2949 39 24.3282 39 24.3614C39 24.3947 39 24.4279 39 24.4611C39 24.4943 39 24.5275 39 24.5606C39 24.5938 39 24.6269 39 24.66C39 24.6932 39 24.7262 39 24.7593C39 24.7924 39 24.8254 39 24.8585C39 24.8915 39 24.9245 39 24.9575C39 24.9905 39 25.0235 39 25.0564C39 25.0894 39 25.1223 39 25.1552C39 25.1881 39 25.221 39 25.2539C39 25.2868 39 25.3196 39 25.3524C39 25.3853 39 25.4181 39 25.4509C39 25.4837 39 25.5164 39 25.5492C39 25.5819 39 25.6147 39 25.6474C39 25.6801 39 25.7128 39 25.7455C39 25.7781 39 25.8108 39 25.8434C39 25.8761 39 25.9087 39 25.9413C39 25.9739 39 26.0065 39 26.039C39 26.0716 39 26.1041 39 26.1366C39 26.1692 39 26.2017 39 26.2341C39 26.2666 39 26.2991 39 26.3315C39 26.364 39 26.3964 39 26.4288C39 26.4612 39 26.4936 39 26.526C39 26.5584 39 26.5907 39 26.6231C39 26.6554 39 26.6877 39 26.72C39 26.7523 39 26.7846 39 26.8169C39 26.8491 39 26.8814 39 26.9136C39 26.9459 39 26.9781 39 27.0103C39 27.0425 39 27.0746 39 27.1068C39 27.1389 39 27.1711 39 27.2032C39 27.2353 39 27.2674 39 27.2995C39 27.3316 39 27.3637 39 27.3957C39 27.4278 39 27.4598 39 27.4919C39 27.5239 39 27.5559 39 27.5879C39 27.6199 39 27.6518 39 27.6838C39 27.7157 39 27.7477 39 27.7796C39 27.8115 39 27.8434 39 27.8753C39 27.9072 39 27.9391 39 27.9709C39 28.0028 39 28.0346 39 28.0664C39 28.0982 39 28.1301 39 28.1618C39 28.1936 39 28.2254 39 28.2572C39 28.2889 39 28.3207 39 28.3524C39 28.3841 39 28.4158 39 28.4475C39 28.4792 39 28.5109 39 28.5425C39 28.5742 39 28.6059 39 28.6375C39 28.6691 39 28.7007 39 28.7323C39 28.7639 39 28.7955 39 28.8271C39 28.8587 39 28.8902 39 28.9218C39 28.9533 39 28.9848 39 29.0163C39 29.0478 39 29.0793 39 29.1108C39 29.1423 39 29.1738 39 29.2052C39 29.2367 39 29.2681 39 29.2995C39 29.3309 39 29.3623 39 29.3937C39 29.4251 39 29.4565 39 29.4879C39 29.5192 39 29.5506 39 29.5819C39 29.6132 39 29.6446 39 29.6759C39 29.7072 39 29.7385 39 29.7697C39 29.801 39 29.8323 39 29.8635C39 29.8948 39 29.926 39 29.9572C39 29.9885 39 30.0197 39 30.0509C39 30.0821 39 30.1133 39 30.1444C39 30.1756 39 30.2067 39 30.2379C39 30.269 39 30.3002 39 30.3313C39 30.3624 39 30.3935 39 30.4246C39 30.4557 39 30.4868 39 30.5178C39 30.5489 39 30.5799 39 30.611C39 30.642 39 30.673 39 30.704C39 30.7351 39 30.7661 39 30.797C39 30.828 39 30.859 39 30.89C39 30.9209 39 30.9519 39 30.9828C39 31.0138 39 31.0447 39 31.0756C39 31.1065 39 31.1374 39 31.1683C39 31.1992 39 31.2301 39 31.2609C39 31.2918 39 31.3226 39 31.3535C39 31.3843 39 31.4152 39 31.446C39 31.4768 39 31.5076 39 31.5384C39 31.5692 39 31.6 39 31.6307C39 31.6615 39 31.6923 39 31.723C39 31.7538 39 31.7845 39 31.8152C39 31.846 39 31.8767 39 31.9074C39 31.9381 39 31.9688 39 31.9995C39 32.0302 39 32.0608 39 32.0915C39 32.1222 39 32.1528 39 32.1834C39 32.2141 39 32.2447 39 32.2753C39 32.306 39 32.3366 39 32.3672C39 32.3978 39 32.4283 39 32.4589C39 32.4895 39 32.5201 39 32.5506C39 32.5812 39 32.6117 39 32.6423C39 32.6728 39 32.7033 39 32.7338C39 32.7644 39 32.7949 39 32.8254C39 32.8559 39 32.8864 39 32.9168C39 32.9473 39 32.9778 39 33.0082C39 33.0387 39 33.0692 39 33.0996C39 33.13 39 33.1605 39 33.1909C39 33.2213 39 33.2517 39 33.2821C39 33.3125 39 33.3429 39 33.3733C39 33.4037 39 33.4341 39 33.4644C39 33.4948 39 33.5252 39 33.5555C39 33.5859 39 33.6162 39 33.6465C39 33.6769 39 33.7072 39 33.7375C39 33.7678 39 33.7981 39 33.8284C39 33.8587 39 33.889 39 33.9193C39 33.9496 39 33.9799 39 34.0101C39 34.0404 39 34.0707 39 34.1009C39 34.1312 39 34.1614 39 34.1917C39 34.2219 39 34.2521 39 34.2823C39 34.3126 39 34.3428 39 34.373C39 34.4032 39 34.4334 39 34.4636C39 34.4937 39 34.5239 39 34.5541C39 34.5843 39 34.6145 39 34.6446C39 34.6748 39 34.7049 39 34.7351C39 34.7652 39 34.7954 39 34.8255C39 34.8556 39 34.8857 39 34.9159C39 34.946 39 34.9761 39 35.0062C39 35.0363 39 35.0664 39 35.0965C39 35.1266 39 35.1567 39 35.1868C39 35.2168 39 35.2469 39 35.277C39 35.307 39 35.3371 39 35.3672C39 35.3972 39 35.4273 39 35.4573C39 35.4873 39 35.5174 39 35.5474C39 35.5774 39 35.6075 39 35.6375C39 35.6675 39 35.6975 39 35.7275C39 35.7575 39 35.7875 39 35.8175C39 35.8475 39 35.8775 39 35.9075C39 35.9375 39 35.9675 39 35.9974C39 36.0274 39 36.0574 39 36.0873C39 36.1173 39 36.1473 39 36.1772C39 36.2072 39 36.2371 39 36.2671C39 36.297 39 36.3269 39 36.3569C39 36.3868 39 36.4167 39 36.4467C39 36.4766 39 36.5065 39 36.5364C39 36.5663 39 36.5963 39 36.6262C39 36.6561 39 36.686 39 36.7159C39 36.7458 39 36.7757 39 36.8056C39 36.8354 39 36.8653 39 36.8952C39 36.9251 39 36.955 39 36.9849C39 37.0147 39 37.0446 39 37.0745C39 37.1043 39 37.1342 39 37.1641C39 37.1939 39 37.2238 39 37.2536C39 37.2835 39 37.3133 39 37.3432C39 37.373 39 37.4029 39 37.4327C39 37.4625 39 37.4924 39 37.5222C39 37.552 39 37.5819 39 37.6117C39 37.6415 39 37.6714 39 37.7012C39 37.731 39 37.7608 39 37.7906C39 37.8204 39 37.8503 39 37.8801C39 37.9099 39 37.9397 39 37.9695C39 37.9993 39 38.0291 39 38.0589C39 38.0887 39 38.1185 39 38.1483C39 38.1781 39 38.2079 39 38.2377C39 38.2675 39 38.2973 39 38.3271C39 38.3568 39 38.3866 39 38.4164C39 38.4462 39 38.476 39 38.5058C39 38.5355 39 38.5653 39 38.5951C39 38.6249 39 38.6547 39 38.6844C39 38.7142 39 38.744 39 38.7738C39 38.8035 39 38.8333 39 38.8631C39 38.8928 39 38.9226 39 38.9524C39 38.9821 39 39.0119 39 39.0417C39 39.0714 39 39.1012 39 39.131C39 39.1607 39 39.1905 39 39.2203C39 39.25 39 39.2798 39 39.3095C39 39.3393 39 39.3691 39 39.3988C39 39.4286 39 39.4583 39 39.4881C39 39.5179 39 39.5476 39 39.5774C39 39.6071 39 39.6369 39 39.6667C39 39.6964 39 39.7262 39 39.7559C39 39.7857 39 39.8155 39 39.8452C39 39.875 39 39.9047 39 39.9345C39 39.9643 39 39.994 39 40.0238C39 40.0535 39 40.0833 39 40.1131C39 40.1428 39 40.1726 39 40.2024C39 40.2321 39 40.2619 39 40.2917C39 40.3214 39 40.3512 39 40.381C39 40.4107 39 40.4405 39 40.4703C39 40.5 39 40.5298 39 40.5596C39 40.5894 39 40.6191 39 40.6489C39 40.6787 39 40.7085 39 40.7382C39 40.768 39 40.7978 39 40.8276C39 40.8573 39 40.8871 39 40.9169C39 40.9467 39 40.9765 39 41.0063C39 41.0361 39 41.0659 39 41.0956C39 41.1254 39 41.1552 39 41.185C39 41.2148 39 41.2446 39 41.2744C39 41.3042 39 41.334 39 41.3638C39 41.3936 39 41.4235 39 41.4533C39 41.4831 39 41.5129 39 41.5427C39 41.5725 39 41.6023 39 41.6322C39 41.662 39 41.6918 39 41.7216C39 41.7515 39 41.7813 39 41.8111C39 41.841 39 41.8708 39 41.9006C39 41.9305 39 41.9603 39 41.9902C39 42.02 39 42.0499 39 42.0797C39 42.1096 39 42.1394 39 42.1693C39 42.1991 39 42.229 39 42.2589C39 42.2887 39 42.3186 39 42.3485C39 42.3784 39 42.4082 39 42.4381C39 42.468 39 42.4979 39 42.5278C39 42.5577 39 42.5876 39 42.6175C39 42.6474 39 42.6773 39 42.7072C39 42.7371 39 42.767 39 42.7969C39 42.8268 39 42.8567 39 42.8867C39 42.9166 39 42.9465 39 42.9765C39 43.0064 39 43.0363 39 43.0663C39 43.0962 39 43.1262 39 43.1561C39 43.1861 39 43.216 39 43.246C39 43.276 39 43.3059 39 43.3359C39 43.3659 39 43.3959 39 43.4258C39 43.4558 39 43.4858 39 43.5158C39 43.5458 39 43.5758 39 43.6058C39 43.6358 39 43.6658 39 43.6959C39 43.7259 39 43.7559 39 43.7859C39 43.816 39 43.846 39 43.876C39 43.9061 39 43.9361 39 43.9662C39 43.9962 39 44.0263 39 44.0564C39 44.0864 39 44.1165 39 44.1466C39 44.1767 39 44.2067 39 44.2368C39 44.2669 39 44.297 39 44.3271C39 44.3572 39 44.3873 39 44.4175C39 44.4476 39 44.4777 39 44.5078C39 44.538 39 44.5681 39 44.5983C39 44.6284 39 44.6586 39 44.6887C39 44.7189 39 44.749 39 44.7792C39 44.8094 39 44.8396 39 44.8698C39 44.9 39 44.9302 39 44.9604C39 44.9906 39 45.0208 39 45.051C39 45.0812 39 45.1114 39 45.1417C39 45.1719 39 45.2022 39 45.2324C39 45.2627 39 45.2929 39 45.3232C39 45.3535 39 45.3837 39 45.414C39 45.4443 39 45.4746 39 45.5049C39 45.5352 39 45.5655 39 45.5958C39 45.6261 39 45.6565 39 45.6868C39 45.7171 39 45.7475 39 45.7778C39 45.8082 39 45.8385 39 45.8689C39 45.8993 39 45.9296 39 45.96C39 45.9904 39 46.0208 39 46.0512C39 46.0816 39 46.112 39 46.1424C39 46.1729 39 46.2033 39 46.2337C39 46.2642 39 46.2946 39 46.3251C39 46.3555 39 46.386 39 46.4165C39 46.447 39 46.4775 39 46.508C39 46.5385 39 46.569 39 46.5995C39 46.63 39 46.6605 39 46.6911C39 46.7216 39 46.7521 39 46.7827C39 46.8133 39 46.8438 39 46.8744C39 46.905 39 46.9356 39 46.9662C39 46.9968 39 47.0274 39 47.058C39 47.0886 39 47.1192 39 47.1499C39 47.1805 39 47.2112 39 47.2418C39 47.2725 39 47.3032 39 47.3339C39 47.3645 39 47.3952 39 47.4259C39 47.4566 39 47.4874 39 47.5181C39 47.5488 39 47.5796 39 47.6103C39 47.6411 39 47.6718 39 47.7026C39 47.7334 39 47.7641 39 47.7949C39 47.8257 39 47.8565 39 47.8874C39 47.9182 39 47.949 39 47.9798C39 48.0107 39 48.0415 39 48.0724C39 48.1033 39 48.1341 39 48.165C39 48.1959 39 48.2268 39 48.2577C39 48.2887 39 48.3196 39 48.3505C39 48.3815 39 48.4124 39 48.4434C39 48.4743 39 48.5053 39 48.5363C39 48.5673 39 48.5983 39 48.6293C39 48.6603 39 48.6913 39 48.7224C39 48.7534 39 48.7845 39 48.8155C39 48.8466 39 48.8777 39 48.9087C39 48.9398 39 48.9709 39 49.0021C39 49.0332 39 49.0643 39 49.0954C39 49.1266 39 49.1577 39 49.1889C39 49.2201 39 49.2513 39 49.2825C39 49.3136 39 49.3449 39 49.3761C39 49.4073 39 49.4385 39 49.4698C39 49.501 39 49.5323 39 49.5636C39 49.5949 39 49.6262 39 49.6575C39 49.6888 39 49.7201 39 49.7514C39 49.7828 39 49.8141 39 49.8455C39 49.8768 39 49.9082 39 49.9396C39 49.971 39 50.0024 39 50.0338C39 50.0652 39 50.0967 39 50.1281C39 50.1596 39 50.191 39 50.2225C39 50.254 39 50.2855 39 50.317C39 50.3485 39 50.38 39 50.4116C39 50.4431 39 50.4747 39 50.5062C39 50.5378 39 50.5694 39 50.601C39 50.6326 39 50.6642 39 50.6958C39 50.7275 39 50.7591 39 50.7908C39 50.8224 39 50.8541 39 50.8858C39 50.9175 39 50.9492 39 50.9809C39 51.0127 39 51.0444 39 51.0762C39 51.1079 39 51.1397 39 51.1715C39 51.2033 39 51.2351 39 51.2669C39 51.2987 39 51.3306 39 51.3624C39 51.3943 39 51.4261 39 51.458C39 51.4899 39 51.5218 39 51.5537C39 51.5857 39 51.6176 39 51.6495C39 51.6815 39 51.7135 39 51.7455C39 51.7774 39 51.8094 39 51.8415C39 51.8735 39 51.9055 39 51.9376C39 51.9696 39 52.0017 39 52.0338C39 52.0659 39 52.098 39 52.1301C39 52.1622 39 52.1944 39 52.2265C39 52.2587 39 52.2909 39 52.3231C39 52.3553 39 52.3875 39 52.4197C39 52.4519 39 52.4842 39 52.5164C39 52.5487 39 52.581 39 52.6133C39 52.6456 39 52.6779 39 52.7103C39 52.7426 39 52.7749 39 52.8073C39 52.8397 39 52.8721 39 52.9045C39 52.9369 39 52.9693 39 53.0018C39 53.0342 39 53.0667 39 53.0992C39 53.1317 39 53.1642 39 53.1967C39 53.2292 39 53.2618 39 53.2943C39 53.3269 39 53.3595 39 53.392C39 53.4246 39 53.4573 39 53.4899C39 53.5225 39 53.5552 39 53.5879C39 53.6205 39 53.6532 39 53.6859C39 53.7187 39 53.7514 39 53.7841C39 53.8169 39 53.8497 39 53.8825C39 53.9152 39 53.9481 39 53.9809C39 54.0137 39 54.0466 39 54.0794C39 54.1123 39 54.1452 39 54.1781C39 54.211 39 54.244 39 54.2769C39 54.3099 39 54.3428 39 54.3758C39 54.4088 39 54.4418 39 54.4748C39 54.5079 39 54.5409 39 54.574C39 54.6071 39 54.6402 39 54.6733C39 54.7064 39 54.7395 39 54.7727C39 54.8059 39 54.839 39 54.8722C39 54.9054 39 54.9386 39 54.9719C39 55.0051 39 55.0384 39 55.0717C39 55.1049 39 55.1382 39 55.1716C39 55.2049 39 55.2382 39 55.2716C39 55.305 39 55.3384 39 55.3718C39 55.4052 39 55.4386 39 55.4721C39 55.5055 39 55.539 39 55.5725C39 55.606 39 55.6395 39 55.6731C39 55.7066 39 55.7402 39 55.7738C39 55.8073 39 55.8409 39 55.8746C39 55.9082 39 55.9419 39 55.9755C39 56.0092 39 56.0429 39 56.0766C39 56.1103 39 56.1441 39 56.1778C39 56.2116 39 56.2454 39 56.2792C39 56.313 39 56.3469 39 56.3807C39 56.4146 39 56.4484 39 56.4823C39 56.5162 39 56.5502 39 56.5841C39 56.6181 39 56.652 39 56.686C39 56.72 39 56.754 39 56.7881C39 56.8221 39 56.8562 39 56.8903C39 56.9244 39 56.9585 39 56.9926C39 57.0267 39 57.0609 39 57.0951C39 57.1293 39 57.1635 39 57.1977C39 57.2319 39 57.2662 39 57.3005C39 57.3347 39 57.369 39 57.4034C39 57.4377 39 57.472 39 57.5064C39 57.5408 39 57.5752 39 57.6096C39 57.644 39 57.6785 39 57.7129C39 57.7474 39 57.7819 39 57.8164C39 57.851 39 57.8855 39 57.9201C39 57.9546 39 57.9892 39 58.0239C39 58.0585 39 58.0931 39 58.1278C39 58.1625 39 58.1972 39 58.2319C39 58.2666 39 58.3013 39 58.3361C39 58.3709 39 58.4057 39 58.4405C39 58.4753 39 58.5102 39 58.5451C39 58.5799 39 58.6148 39 58.6497C39 58.6847 39 58.7196 39 58.7546C39 58.7896 39 58.8246 39 58.8596C39 58.8946 39 58.9297 39 58.9648C39 58.9998 39 59.0349 39 59.0701C39 59.1052 39 59.1404 39 59.1756C39 59.2107 39 59.2459 39 59.2812C39 59.3164 39 59.3517 39 59.387C39 59.4223 39 59.4576 39 59.4929C39 59.5283 39 59.5636 39 59.599C39 59.6344 39 59.6699 39 59.7053C39 59.7408 39 59.7762 39 59.8117C39 59.8472 39 59.8828 39 59.9183C39 59.9539 39 59.9895 39 60.0251C39 60.0607 39 60.0964 39 60.132C39 60.1677 39 60.2034 39 60.2391C39 60.2748 39 60.3106 39 60.3464C39 60.3821 39 60.4179 39 60.4538C39 60.4896 39 60.5255 39 60.5614C39 60.5973 39 60.6332 39 60.6691C39 60.7051 39 60.741 39 60.7771C39 60.8131 39 60.8491 39 60.8851C39 60.9212 39 60.9573 39 60.9934C39 61.0295 39 61.0657 39 61.1018C39 61.138 39 61.1742 39 61.2104C39 61.2467 39 61.2829 39 61.3192C39 61.3555 39 61.3918 39 61.4282C39 61.4645 39 61.5009 39 61.5373C39 61.5737 39 61.6101 39 61.6466C39 61.6831 39 61.7196 39 61.7561C39 61.7926 39 61.8292 39 61.8657C39 61.9023 39 61.9389 39 61.9756C39 62.0122 39 62.0489 39 62.0856C39 62.1223 39 62.159 39 62.1958C39 62.2325 39 62.2693 39 62.3061C39 62.343 39 62.3798 39 62.4167C39 62.4536 39 62.4905 39 62.5274C39 62.5644 39 62.6013 39 62.6383C39 62.6753 39 62.7124 39 62.7494C39 62.7865 39 62.8236 39 62.8607C39 62.8978 39 62.935 39 62.9722C39 63.0093 39 63.0466 39 63.0838C39 63.121 39 63.1583 39 63.1956C39 63.2329 39 63.2703 39 63.3076C39 63.345 39 63.3824 39 63.4198C39 63.4573 39 63.4947 39 63.5322C39 63.5697 39 63.6073 39 63.6448C39 63.6824 39 63.72 39 63.7576C39 63.7952 39 63.8329 39 63.8706C39 63.9082 39 63.946 39 63.9837C39 64.0215 39 64.0592 39 64.097C39 64.1349 39 64.1727 39 64.2106C39 64.2485 39 64.2864 39 64.3243C39 64.3623 39 64.4002 39 64.4382C39 64.4762 39 64.5143 39 64.5524C39 64.5904 39 64.6285 39 64.6667H41C41 64.6285 41 64.5904 41 64.5524C41 64.5143 41 64.4762 41 64.4382C41 64.4002 41 64.3623 41 64.3243C41 64.2864 41 64.2485 41 64.2106C41 64.1727 41 64.1349 41 64.097C41 64.0592 41 64.0215 41 63.9837C41 63.946 41 63.9082 41 63.8706C41 63.8329 41 63.7952 41 63.7576C41 63.72 41 63.6824 41 63.6448C41 63.6073 41 63.5697 41 63.5322C41 63.4947 41 63.4573 41 63.4198C41 63.3824 41 63.345 41 63.3076C41 63.2703 41 63.2329 41 63.1956C41 63.1583 41 63.121 41 63.0838C41 63.0466 41 63.0093 41 62.9722C41 62.935 41 62.8978 41 62.8607C41 62.8236 41 62.7865 41 62.7494C41 62.7124 41 62.6753 41 62.6383C41 62.6013 41 62.5644 41 62.5274C41 62.4905 41 62.4536 41 62.4167C41 62.3798 41 62.343 41 62.3061C41 62.2693 41 62.2325 41 62.1958C41 62.159 41 62.1223 41 62.0856C41 62.0489 41 62.0122 41 61.9756C41 61.9389 41 61.9023 41 61.8657C41 61.8292 41 61.7926 41 61.7561C41 61.7196 41 61.6831 41 61.6466C41 61.6101 41 61.5737 41 61.5373C41 61.5009 41 61.4645 41 61.4282C41 61.3918 41 61.3555 41 61.3192C41 61.2829 41 61.2467 41 61.2104C41 61.1742 41 61.138 41 61.1018C41 61.0657 41 61.0295 41 60.9934C41 60.9573 41 60.9212 41 60.8851C41 60.8491 41 60.8131 41 60.7771C41 60.741 41 60.7051 41 60.6691C41 60.6332 41 60.5973 41 60.5614C41 60.5255 41 60.4896 41 60.4538C41 60.4179 41 60.3821 41 60.3464C41 60.3106 41 60.2748 41 60.2391C41 60.2034 41 60.1677 41 60.132C41 60.0964 41 60.0607 41 60.0251C41 59.9895 41 59.9539 41 59.9183C41 59.8828 41 59.8472 41 59.8117C41 59.7762 41 59.7408 41 59.7053C41 59.6699 41 59.6344 41 59.599C41 59.5636 41 59.5283 41 59.4929C41 59.4576 41 59.4223 41 59.387C41 59.3517 41 59.3164 41 59.2812C41 59.2459 41 59.2107 41 59.1756C41 59.1404 41 59.1052 41 59.0701C41 59.0349 41 58.9998 41 58.9648C41 58.9297 41 58.8946 41 58.8596C41 58.8246 41 58.7896 41 58.7546C41 58.7196 41 58.6847 41 58.6497C41 58.6148 41 58.5799 41 58.5451C41 58.5102 41 58.4753 41 58.4405C41 58.4057 41 58.3709 41 58.3361C41 58.3013 41 58.2666 41 58.2319C41 58.1972 41 58.1625 41 58.1278C41 58.0931 41 58.0585 41 58.0239C41 57.9892 41 57.9546 41 57.9201C41 57.8855 41 57.851 41 57.8164C41 57.7819 41 57.7474 41 57.7129C41 57.6785 41 57.644 41 57.6096C41 57.5752 41 57.5408 41 57.5064C41 57.472 41 57.4377 41 57.4034C41 57.369 41 57.3347 41 57.3005C41 57.2662 41 57.2319 41 57.1977C41 57.1635 41 57.1293 41 57.0951C41 57.0609 41 57.0267 41 56.9926C41 56.9585 41 56.9244 41 56.8903C41 56.8562 41 56.8221 41 56.7881C41 56.754 41 56.72 41 56.686C41 56.652 41 56.6181 41 56.5841C41 56.5502 41 56.5162 41 56.4823C41 56.4484 41 56.4146 41 56.3807C41 56.3469 41 56.313 41 56.2792C41 56.2454 41 56.2116 41 56.1778C41 56.1441 41 56.1103 41 56.0766C41 56.0429 41 56.0092 41 55.9755C41 55.9419 41 55.9082 41 55.8746C41 55.8409 41 55.8073 41 55.7738C41 55.7402 41 55.7066 41 55.6731C41 55.6395 41 55.606 41 55.5725C41 55.539 41 55.5055 41 55.4721C41 55.4386 41 55.4052 41 55.3718C41 55.3384 41 55.305 41 55.2716C41 55.2382 41 55.2049 41 55.1716C41 55.1382 41 55.1049 41 55.0717C41 55.0384 41 55.0051 41 54.9719C41 54.9386 41 54.9054 41 54.8722C41 54.839 41 54.8059 41 54.7727C41 54.7395 41 54.7064 41 54.6733C41 54.6402 41 54.6071 41 54.574C41 54.5409 41 54.5079 41 54.4748C41 54.4418 41 54.4088 41 54.3758C41 54.3428 41 54.3099 41 54.2769C41 54.244 41 54.211 41 54.1781C41 54.1452 41 54.1123 41 54.0794C41 54.0466 41 54.0137 41 53.9809C41 53.9481 41 53.9152 41 53.8825C41 53.8497 41 53.8169 41 53.7841C41 53.7514 41 53.7187 41 53.6859C41 53.6532 41 53.6205 41 53.5879C41 53.5552 41 53.5225 41 53.4899C41 53.4573 41 53.4246 41 53.392C41 53.3595 41 53.3269 41 53.2943C41 53.2618 41 53.2292 41 53.1967C41 53.1642 41 53.1317 41 53.0992C41 53.0667 41 53.0342 41 53.0018C41 52.9693 41 52.9369 41 52.9045C41 52.8721 41 52.8397 41 52.8073C41 52.7749 41 52.7426 41 52.7103C41 52.6779 41 52.6456 41 52.6133C41 52.581 41 52.5487 41 52.5164C41 52.4842 41 52.4519 41 52.4197C41 52.3875 41 52.3553 41 52.3231C41 52.2909 41 52.2587 41 52.2265C41 52.1944 41 52.1622 41 52.1301C41 52.098 41 52.0659 41 52.0338C41 52.0017 41 51.9696 41 51.9376C41 51.9055 41 51.8735 41 51.8415C41 51.8094 41 51.7774 41 51.7455C41 51.7135 41 51.6815 41 51.6495C41 51.6176 41 51.5857 41 51.5537C41 51.5218 41 51.4899 41 51.458C41 51.4261 41 51.3943 41 51.3624C41 51.3306 41 51.2987 41 51.2669C41 51.2351 41 51.2033 41 51.1715C41 51.1397 41 51.1079 41 51.0762C41 51.0444 41 51.0127 41 50.9809C41 50.9492 41 50.9175 41 50.8858C41 50.8541 41 50.8224 41 50.7908C41 50.7591 41 50.7275 41 50.6958C41 50.6642 41 50.6326 41 50.601C41 50.5694 41 50.5378 41 50.5062C41 50.4747 41 50.4431 41 50.4116C41 50.38 41 50.3485 41 50.317C41 50.2855 41 50.254 41 50.2225C41 50.191 41 50.1596 41 50.1281C41 50.0967 41 50.0652 41 50.0338C41 50.0024 41 49.971 41 49.9396C41 49.9082 41 49.8768 41 49.8455C41 49.8141 41 49.7828 41 49.7514C41 49.7201 41 49.6888 41 49.6575C41 49.6262 41 49.5949 41 49.5636C41 49.5323 41 49.501 41 49.4698C41 49.4385 41 49.4073 41 49.3761C41 49.3449 41 49.3136 41 49.2825C41 49.2513 41 49.2201 41 49.1889C41 49.1577 41 49.1266 41 49.0954C41 49.0643 41 49.0332 41 49.0021C41 48.9709 41 48.9398 41 48.9087C41 48.8777 41 48.8466 41 48.8155C41 48.7845 41 48.7534 41 48.7224C41 48.6913 41 48.6603 41 48.6293C41 48.5983 41 48.5673 41 48.5363C41 48.5053 41 48.4743 41 48.4434C41 48.4124 41 48.3815 41 48.3505C41 48.3196 41 48.2887 41 48.2577C41 48.2268 41 48.1959 41 48.165C41 48.1341 41 48.1033 41 48.0724C41 48.0415 41 48.0107 41 47.9798C41 47.949 41 47.9182 41 47.8874C41 47.8565 41 47.8257 41 47.7949C41 47.7641 41 47.7334 41 47.7026C41 47.6718 41 47.6411 41 47.6103C41 47.5796 41 47.5488 41 47.5181C41 47.4874 41 47.4566 41 47.4259C41 47.3952 41 47.3645 41 47.3339C41 47.3032 41 47.2725 41 47.2418C41 47.2112 41 47.1805 41 47.1499C41 47.1192 41 47.0886 41 47.058C41 47.0274 41 46.9968 41 46.9662C41 46.9356 41 46.905 41 46.8744C41 46.8438 41 46.8133 41 46.7827C41 46.7521 41 46.7216 41 46.6911C41 46.6605 41 46.63 41 46.5995C41 46.569 41 46.5385 41 46.508C41 46.4775 41 46.447 41 46.4165C41 46.386 41 46.3555 41 46.3251C41 46.2946 41 46.2642 41 46.2337C41 46.2033 41 46.1729 41 46.1424C41 46.112 41 46.0816 41 46.0512C41 46.0208 41 45.9904 41 45.96C41 45.9296 41 45.8993 41 45.8689C41 45.8385 41 45.8082 41 45.7778C41 45.7475 41 45.7171 41 45.6868C41 45.6565 41 45.6261 41 45.5958C41 45.5655 41 45.5352 41 45.5049C41 45.4746 41 45.4443 41 45.414C41 45.3837 41 45.3535 41 45.3232C41 45.2929 41 45.2627 41 45.2324C41 45.2022 41 45.1719 41 45.1417C41 45.1114 41 45.0812 41 45.051C41 45.0208 41 44.9906 41 44.9604C41 44.9302 41 44.9 41 44.8698C41 44.8396 41 44.8094 41 44.7792C41 44.749 41 44.7189 41 44.6887C41 44.6586 41 44.6284 41 44.5983C41 44.5681 41 44.538 41 44.5078C41 44.4777 41 44.4476 41 44.4175C41 44.3873 41 44.3572 41 44.3271C41 44.297 41 44.2669 41 44.2368C41 44.2067 41 44.1767 41 44.1466C41 44.1165 41 44.0864 41 44.0564C41 44.0263 41 43.9962 41 43.9662C41 43.9361 41 43.9061 41 43.876C41 43.846 41 43.816 41 43.7859C41 43.7559 41 43.7259 41 43.6959C41 43.6658 41 43.6358 41 43.6058C41 43.5758 41 43.5458 41 43.5158C41 43.4858 41 43.4558 41 43.4258C41 43.3959 41 43.3659 41 43.3359C41 43.3059 41 43.276 41 43.246C41 43.216 41 43.1861 41 43.1561C41 43.1262 41 43.0962 41 43.0663C41 43.0363 41 43.0064 41 42.9765C41 42.9465 41 42.9166 41 42.8867C41 42.8567 41 42.8268 41 42.7969C41 42.767 41 42.7371 41 42.7072C41 42.6773 41 42.6474 41 42.6175C41 42.5876 41 42.5577 41 42.5278C41 42.4979 41 42.468 41 42.4381C41 42.4082 41 42.3784 41 42.3485C41 42.3186 41 42.2887 41 42.2589C41 42.229 41 42.1991 41 42.1693C41 42.1394 41 42.1096 41 42.0797C41 42.0499 41 42.02 41 41.9902C41 41.9603 41 41.9305 41 41.9006C41 41.8708 41 41.841 41 41.8111C41 41.7813 41 41.7515 41 41.7216C41 41.6918 41 41.662 41 41.6322C41 41.6023 41 41.5725 41 41.5427C41 41.5129 41 41.4831 41 41.4533C41 41.4235 41 41.3936 41 41.3638C41 41.334 41 41.3042 41 41.2744C41 41.2446 41 41.2148 41 41.185C41 41.1552 41 41.1254 41 41.0956C41 41.0659 41 41.0361 41 41.0063C41 40.9765 41 40.9467 41 40.9169C41 40.8871 41 40.8573 41 40.8276C41 40.7978 41 40.768 41 40.7382C41 40.7085 41 40.6787 41 40.6489C41 40.6191 41 40.5894 41 40.5596C41 40.5298 41 40.5 41 40.4703C41 40.4405 41 40.4107 41 40.381C41 40.3512 41 40.3214 41 40.2917C41 40.2619 41 40.2321 41 40.2024C41 40.1726 41 40.1428 41 40.1131C41 40.0833 41 40.0535 41 40.0238C41 39.994 41 39.9643 41 39.9345C41 39.9047 41 39.875 41 39.8452C41 39.8155 41 39.7857 41 39.7559C41 39.7262 41 39.6964 41 39.6667C41 39.6369 41 39.6071 41 39.5774C41 39.5476 41 39.5179 41 39.4881C41 39.4583 41 39.4286 41 39.3988C41 39.3691 41 39.3393 41 39.3095C41 39.2798 41 39.25 41 39.2203C41 39.1905 41 39.1607 41 39.131C41 39.1012 41 39.0714 41 39.0417C41 39.0119 41 38.9821 41 38.9524C41 38.9226 41 38.8928 41 38.8631C41 38.8333 41 38.8035 41 38.7738C41 38.744 41 38.7142 41 38.6844C41 38.6547 41 38.6249 41 38.5951C41 38.5653 41 38.5355 41 38.5058C41 38.476 41 38.4462 41 38.4164C41 38.3866 41 38.3568 41 38.3271C41 38.2973 41 38.2675 41 38.2377C41 38.2079 41 38.1781 41 38.1483C41 38.1185 41 38.0887 41 38.0589C41 38.0291 41 37.9993 41 37.9695C41 37.9397 41 37.9099 41 37.8801C41 37.8503 41 37.8204 41 37.7906C41 37.7608 41 37.731 41 37.7012C41 37.6714 41 37.6415 41 37.6117C41 37.5819 41 37.552 41 37.5222C41 37.4924 41 37.4625 41 37.4327C41 37.4029 41 37.373 41 37.3432C41 37.3133 41 37.2835 41 37.2536C41 37.2238 41 37.1939 41 37.1641C41 37.1342 41 37.1043 41 37.0745C41 37.0446 41 37.0147 41 36.9849C41 36.955 41 36.9251 41 36.8952C41 36.8653 41 36.8354 41 36.8056C41 36.7757 41 36.7458 41 36.7159C41 36.686 41 36.6561 41 36.6262C41 36.5963 41 36.5663 41 36.5364C41 36.5065 41 36.4766 41 36.4467C41 36.4167 41 36.3868 41 36.3569C41 36.3269 41 36.297 41 36.2671C41 36.2371 41 36.2072 41 36.1772C41 36.1473 41 36.1173 41 36.0873C41 36.0574 41 36.0274 41 35.9974C41 35.9675 41 35.9375 41 35.9075C41 35.8775 41 35.8475 41 35.8175C41 35.7875 41 35.7575 41 35.7275C41 35.6975 41 35.6675 41 35.6375C41 35.6075 41 35.5774 41 35.5474C41 35.5174 41 35.4873 41 35.4573C41 35.4273 41 35.3972 41 35.3672C41 35.3371 41 35.307 41 35.277C41 35.2469 41 35.2168 41 35.1868C41 35.1567 41 35.1266 41 35.0965C41 35.0664 41 35.0363 41 35.0062C41 34.9761 41 34.946 41 34.9159C41 34.8857 41 34.8556 41 34.8255C41 34.7954 41 34.7652 41 34.7351C41 34.7049 41 34.6748 41 34.6446C41 34.6145 41 34.5843 41 34.5541C41 34.5239 41 34.4937 41 34.4636C41 34.4334 41 34.4032 41 34.373C41 34.3428 41 34.3126 41 34.2823C41 34.2521 41 34.2219 41 34.1917C41 34.1614 41 34.1312 41 34.1009C41 34.0707 41 34.0404 41 34.0101C41 33.9799 41 33.9496 41 33.9193C41 33.889 41 33.8587 41 33.8284C41 33.7981 41 33.7678 41 33.7375C41 33.7072 41 33.6769 41 33.6465C41 33.6162 41 33.5859 41 33.5555C41 33.5252 41 33.4948 41 33.4644C41 33.4341 41 33.4037 41 33.3733C41 33.3429 41 33.3125 41 33.2821C41 33.2517 41 33.2213 41 33.1909C41 33.1605 41 33.13 41 33.0996C41 33.0692 41 33.0387 41 33.0082C41 32.9778 41 32.9473 41 32.9168C41 32.8864 41 32.8559 41 32.8254C41 32.7949 41 32.7644 41 32.7338C41 32.7033 41 32.6728 41 32.6423C41 32.6117 41 32.5812 41 32.5506C41 32.5201 41 32.4895 41 32.4589C41 32.4283 41 32.3978 41 32.3672C41 32.3366 41 32.306 41 32.2753C41 32.2447 41 32.2141 41 32.1834C41 32.1528 41 32.1222 41 32.0915C41 32.0608 41 32.0302 41 31.9995C41 31.9688 41 31.9381 41 31.9074C41 31.8767 41 31.846 41 31.8152C41 31.7845 41 31.7538 41 31.723C41 31.6923 41 31.6615 41 31.6307C41 31.6 41 31.5692 41 31.5384C41 31.5076 41 31.4768 41 31.446C41 31.4152 41 31.3843 41 31.3535C41 31.3226 41 31.2918 41 31.2609C41 31.2301 41 31.1992 41 31.1683C41 31.1374 41 31.1065 41 31.0756C41 31.0447 41 31.0138 41 30.9828C41 30.9519 41 30.9209 41 30.89C41 30.859 41 30.828 41 30.797C41 30.7661 41 30.7351 41 30.704C41 30.673 41 30.642 41 30.611C41 30.5799 41 30.5489 41 30.5178C41 30.4868 41 30.4557 41 30.4246C41 30.3935 41 30.3624 41 30.3313C41 30.3002 41 30.269 41 30.2379C41 30.2067 41 30.1756 41 30.1444C41 30.1133 41 30.0821 41 30.0509C41 30.0197 41 29.9885 41 29.9572C41 29.926 41 29.8948 41 29.8635C41 29.8323 41 29.801 41 29.7697C41 29.7385 41 29.7072 41 29.6759C41 29.6446 41 29.6132 41 29.5819C41 29.5506 41 29.5192 41 29.4879C41 29.4565 41 29.4251 41 29.3937C41 29.3623 41 29.3309 41 29.2995C41 29.2681 41 29.2367 41 29.2052C41 29.1738 41 29.1423 41 29.1108C41 29.0793 41 29.0478 41 29.0163C41 28.9848 41 28.9533 41 28.9218C41 28.8902 41 28.8587 41 28.8271C41 28.7955 41 28.7639 41 28.7323C41 28.7007 41 28.6691 41 28.6375C41 28.6059 41 28.5742 41 28.5425C41 28.5109 41 28.4792 41 28.4475C41 28.4158 41 28.3841 41 28.3524C41 28.3207 41 28.2889 41 28.2572C41 28.2254 41 28.1936 41 28.1618C41 28.1301 41 28.0982 41 28.0664C41 28.0346 41 28.0028 41 27.9709C41 27.9391 41 27.9072 41 27.8753C41 27.8434 41 27.8115 41 27.7796C41 27.7477 41 27.7157 41 27.6838C41 27.6518 41 27.6199 41 27.5879C41 27.5559 41 27.5239 41 27.4919C41 27.4598 41 27.4278 41 27.3957C41 27.3637 41 27.3316 41 27.2995C41 27.2674 41 27.2353 41 27.2032C41 27.1711 41 27.1389 41 27.1068C41 27.0746 41 27.0425 41 27.0103C41 26.9781 41 26.9459 41 26.9136C41 26.8814 41 26.8491 41 26.8169C41 26.7846 41 26.7523 41 26.72C41 26.6877 41 26.6554 41 26.6231C41 26.5907 41 26.5584 41 26.526C41 26.4936 41 26.4612 41 26.4288C41 26.3964 41 26.364 41 26.3315C41 26.2991 41 26.2666 41 26.2341C41 26.2017 41 26.1692 41 26.1366C41 26.1041 41 26.0716 41 26.039C41 26.0065 41 25.9739 41 25.9413C41 25.9087 41 25.8761 41 25.8434C41 25.8108 41 25.7781 41 25.7455C41 25.7128 41 25.6801 41 25.6474C41 25.6147 41 25.5819 41 25.5492C41 25.5164 41 25.4837 41 25.4509C41 25.4181 41 25.3853 41 25.3524C41 25.3196 41 25.2868 41 25.2539C41 25.221 41 25.1881 41 25.1552C41 25.1223 41 25.0894 41 25.0564C41 25.0235 41 24.9905 41 24.9575C41 24.9245 41 24.8915 41 24.8585C41 24.8254 41 24.7924 41 24.7593C41 24.7262 41 24.6932 41 24.66C41 24.6269 41 24.5938 41 24.5606C41 24.5275 41 24.4943 41 24.4611C41 24.4279 41 24.3947 41 24.3614C41 24.3282 41 24.2949 41 24.2617C41 24.2284 41 24.1951 41 24.1618C41 24.1284 41 24.0951 41 24.0617C41 24.0283 41 23.995 41 23.9616C41 23.9281 41 23.8947 41 23.8613C41 23.8278 41 23.7943 41 23.7608C41 23.7273 41 23.6938 41 23.6603C41 23.6267 41 23.5932 41 23.5596C41 23.526 41 23.4924 41 23.4588C41 23.4251 41 23.3915 41 23.3578C41 23.3241 41 23.2904 41 23.2567C41 23.223 41 23.1892 41 23.1555C41 23.1217 41 23.0879 41 23.0541C41 23.0203 41 22.9865 41 22.9526C41 22.9188 41 22.8849 41 22.851C41 22.8171 41 22.7832 41 22.7492C41 22.7153 41 22.6813 41 22.6473C41 22.6133 41 22.5793 41 22.5453C41 22.5112 41 22.4771 41 22.4431C41 22.409 41 22.3749 41 22.3407C41 22.3066 41 22.2724 41 22.2383C41 22.2041 41 22.1699 41 22.1356C41 22.1014 41 22.0672 41 22.0329C41 21.9986 41 21.9643 41 21.93C41 21.8956 41 21.8613 41 21.8269C41 21.7925 41 21.7581 41 21.7237C41 21.6893 41 21.6549 41 21.6204C41 21.5859 41 21.5514 41 21.5169C41 21.4824 41 21.4478 41 21.4133C41 21.3787 41 21.3441 41 21.3095C41 21.2748 41 21.2402 41 21.2055C41 21.1709 41 21.1362 41 21.1014C41 21.0667 41 21.032 41 20.9972C41 20.9624 41 20.9276 41 20.8928C41 20.858 41 20.8231 41 20.7883C41 20.7534 41 20.7185 41 20.6836C41 20.6487 41 20.6137 41 20.5787C41 20.5438 41 20.5088 41 20.4737C41 20.4387 41 20.4036 41 20.3686C41 20.3335 41 20.2984 41 20.2633C41 20.2281 41 20.193 41 20.1578C41 20.1226 41 20.0874 41 20.0521C41 20.0169 41 19.9816 41 19.9464C41 19.9111 41 19.8757 41 19.8404C41 19.8051 41 19.7697 41 19.7343C41 19.6989 41 19.6635 41 19.628C41 19.5926 41 19.5571 41 19.5216C41 19.4861 41 19.4506 41 19.415C41 19.3794 41 19.3438 41 19.3082C41 19.2726 41 19.237 41 19.2013C41 19.1656 41 19.1299 41 19.0942C41 19.0585 41 19.0227 41 18.987C41 18.9512 41 18.9154 41 18.8795C41 18.8437 41 18.8079 41 18.772C41 18.7361 41 18.7002 41 18.6642C41 18.6283 41 18.5923 41 18.5563C41 18.5203 41 18.4842 41 18.4482C41 18.4121 41 18.376 41 18.3399C41 18.3038 41 18.2677 41 18.2315C41 18.1953 41 18.1591 41 18.1229C41 18.0866 41 18.0504 41 18.0141C41 17.9778 41 17.9415 41 17.9051C41 17.8688 41 17.8324 41 17.796C41 17.7596 41 17.7232 41 17.6867C41 17.6503 41 17.6138 41 17.5772C41 17.5407 41 17.5042 41 17.4676C41 17.431 41 17.3944 41 17.3578C41 17.3211 41 17.2844 41 17.2477C41 17.211 41 17.1743 41 17.1376C41 17.1008 41 17.064 41 17.0272C41 16.9904 41 16.9535 41 16.9166C41 16.8798 41 16.8429 41 16.8059C41 16.769 41 16.732 41 16.695C41 16.658 41 16.621 41 16.5839C41 16.5469 41 16.5098 41 16.4726C41 16.4355 41 16.3984 41 16.3612C41 16.324 41 16.2868 41 16.2495C41 16.2123 41 16.175 41 16.1377C41 16.1004 41 16.0631 41 16.0257C41 15.9883 41 15.9509 41 15.9135C41 15.876 41 15.8386 41 15.8011C41 15.7636 41 15.7261 41 15.6885C41 15.6509 41 15.6134 41 15.5757C41 15.5381 41 15.5005 41 15.4628C41 15.4251 41 15.3874 41 15.3496C41 15.3119 41 15.2741 41 15.2363C41 15.1985 41 15.1606 41 15.1227C41 15.0849 41 15.047 41 15.009C41 14.9711 41 14.9331 41 14.8951C41 14.8571 41 14.819 41 14.781C41 14.7429 41 14.7048 41 14.6667H39ZM40 64.6667C40.6226 63.8841 40.6226 63.8841 40.6225 63.884C40.6224 63.8839 40.6222 63.8838 40.622 63.8837C40.6213 63.8831 40.6215 63.8832 40.6203 63.8823C40.6191 63.8814 40.6162 63.879 40.6135 63.8768C40.6072 63.8719 40.5984 63.8649 40.5862 63.8552C40.5622 63.836 40.5263 63.8075 40.4792 63.77C40.385 63.6951 40.2457 63.5842 40.0656 63.441C39.7054 63.1544 39.1819 62.7379 38.5284 62.2179C37.2214 61.1781 35.3947 59.7247 33.3158 58.0707C29.158 54.7626 23.9914 50.6519 19.9559 47.4412L18.7107 49.0062C22.7462 52.2169 27.9128 56.3277 32.0706 59.6357C34.1495 61.2898 35.9762 62.7431 37.2832 63.783C37.9367 64.3029 38.4602 64.7195 38.8204 65.006C39.0005 65.1494 39.1397 65.2601 39.234 65.3351C39.2811 65.3726 39.317 65.4011 39.341 65.4203C39.353 65.4298 39.3622 65.4371 39.3682 65.4419C39.371 65.4441 39.3739 65.4464 39.3751 65.4474C39.3755 65.4477 39.3758 65.4479 39.3761 65.4482C39.3764 65.4484 39.3766 65.4486 39.3768 65.4487C39.377 65.4489 39.3772 65.449 39.3773 65.4491C39.3774 65.4492 39.3774 65.4492 40 64.6667ZM40.6226 65.4492C44.658 62.2385 47.807 59.7331 50.9559 57.2277C54.1049 54.7223 57.2539 52.2169 61.2893 49.0062L60.0441 47.4412C56.0087 50.6519 52.8597 53.1573 49.7107 55.6627C46.5618 58.168 43.4128 60.6734 39.3774 63.8841L40.6226 65.4492Z" fill="black"/>
</svg>
